<svg xmlns="http://www.w3.org/2000/svg" viewBox="0 0 1280.000000 1280.000000">
<g transform="translate(0.000000,1280.000000) scale(0.100000,-0.100000)"
fill="#139AFF" stroke="none">
<path d="M7185 10896 c-108 -53 -126 -68 -147 -128 -15 -42 -18 -67 -12 -123
8 -87 15 -101 62 -120 20 -9 53 -28 72 -43 19 -15 47 -35 62 -45 27 -17 27
-19 23 -94 -3 -43 -7 -136 -10 -208 -2 -71 -7 -179 -10 -240 -2 -60 -7 -166
-10 -235 -2 -69 -8 -195 -11 -280 -4 -85 -8 -171 -8 -190 -1 -30 -5 -35 -28
-38 -16 -2 -28 -9 -28 -17 0 -7 -20 -22 -45 -34 -50 -23 -51 -27 -30 -67 8
-16 15 -44 15 -63 0 -20 7 -40 18 -48 12 -10 14 -16 5 -19 -22 -10 -14 -34 15
-45 25 -10 26 -12 10 -23 -21 -16 -23 -42 -4 -49 25 -10 12 -63 -22 -92 -30
-25 -83 -122 -112 -205 -20 -56 -54 -272 -50 -317 3 -29 2 -107 0 -153 -6 -93
34 -309 71 -385 54 -113 125 -186 193 -199 58 -11 159 37 192 91 9 16 26 41
36 56 24 35 58 128 67 187 4 25 10 51 14 57 9 14 27 196 26 263 -1 129 -20
307 -34 331 -5 7 -10 28 -12 48 -2 20 -10 45 -17 56 -7 11 -16 34 -20 50 -4
17 -18 44 -32 62 -27 36 -29 43 -11 43 21 0 57 39 51 55 -3 8 -15 17 -26 21
-18 6 -19 7 -2 25 16 18 16 20 -1 39 -10 11 -19 36 -20 57 -1 20 -7 39 -13 41
-7 2 -9 15 -5 34 4 23 2 34 -11 44 -15 10 -15 15 -4 34 11 19 10 23 -10 40
-13 11 -18 21 -12 25 5 3 10 14 10 24 0 16 -21 32 -62 45 -18 5 -18 -11 -2
376 3 69 7 181 10 250 3 69 7 170 9 225 2 55 7 154 9 220 3 66 5 124 5 129 1
5 14 6 30 3 40 -8 97 10 157 49 l51 34 77 -11 77 -12 167 -171 c496 -506 768
-791 773 -810 3 -11 9 -482 12 -1046 4 -564 12 -1571 18 -2238 6 -668 8 -1216
5 -1220 -3 -3 -361 16 -794 43 l-788 48 -1064 -22 c-586 -12 -1102 -21 -1147
-21 l-83 0 35 46 c40 52 44 85 15 114 -33 33 -75 26 -127 -20 -46 -41 -90 -51
-122 -31 -11 7 -4 15 32 32 26 13 47 29 47 37 0 17 -26 10 -93 -24 -34 -18
-52 -22 -65 -15 -9 5 -68 61 -129 124 -94 95 -113 119 -113 144 0 18 -25 80
-59 146 -70 137 -86 182 -106 307 -21 124 -39 179 -130 395 -42 99 -84 200
-93 225 -8 25 -27 62 -41 84 -24 37 -25 39 -6 52 10 8 22 14 27 14 13 0 9 54
-6 91 -7 19 -16 63 -20 99 -3 36 -14 107 -23 158 -22 123 -18 127 90 68 78
-43 89 -46 157 -46 89 0 216 -32 268 -68 20 -14 74 -42 119 -63 53 -24 83 -44
88 -58 21 -68 115 31 115 120 0 50 -73 115 -137 124 -74 10 -110 23 -213 78
-122 65 -384 232 -433 276 -78 71 -148 207 -148 291 -1 25 -12 83 -26 130 -19
64 -25 110 -27 188 -1 97 0 105 22 123 13 10 41 23 61 29 21 5 46 19 56 30 18
19 18 22 0 74 l-19 54 28 37 c25 33 27 40 16 63 -39 86 -82 231 -81 278 1 82
-10 87 -188 92 l-149 4 -40 -40 c-23 -23 -54 -65 -69 -94 -23 -45 -27 -65 -27
-133 1 -87 8 -107 75 -207 22 -31 39 -59 39 -61 0 -3 -13 -10 -30 -16 -25 -8
-30 -15 -30 -41 0 -25 -12 -44 -63 -93 -79 -79 -119 -155 -152 -292 -38 -155
-40 -204 -16 -308 12 -48 21 -113 21 -145 0 -31 7 -88 15 -127 9 -38 20 -138
26 -222 8 -130 8 -161 -6 -213 -21 -80 -12 -138 29 -191 74 -97 78 -126 47
-280 -11 -52 -23 -123 -26 -159 -8 -73 -29 -154 -57 -220 -11 -25 -37 -112
-58 -195 -21 -82 -48 -184 -59 -225 -24 -85 -41 -194 -67 -421 l-17 -156 -196
-8 c-108 -3 -198 -9 -200 -11 -3 -2 -7 -89 -9 -193 l-5 -188 -135 -7 c-75 -4
-140 -10 -144 -12 -4 -3 -8 -81 -8 -174 l0 -169 -42 -5 c-24 -3 -180 -10 -348
-16 -168 -6 -320 -13 -337 -16 l-33 -5 0 -179 c0 -180 0 -180 -22 -180 -74 -1
-521 -30 -526 -34 -3 -3 -7 -87 -10 -186 -4 -157 -7 -180 -21 -180 -48 -1
-733 -49 -736 -52 -8 -8 -8 -379 1 -386 5 -5 90 -80 189 -167 99 -87 195 -172
213 -189 25 -24 40 -30 70 -28 20 1 863 74 1872 163 l1835 161 873 -346 c480
-190 885 -346 900 -346 15 0 545 59 1177 130 633 72 1510 171 1950 221 440 49
1115 126 1500 169 385 44 928 105 1208 137 l507 57 0 156 c0 85 -7 461 -15
835 -8 374 -15 707 -15 741 l0 61 -117 7 c-139 8 -1254 76 -2397 146 -444 27
-810 51 -812 53 -5 5 -19 1286 -40 3687 -9 1086 -20 1979 -24 1983 -4 4 -110
25 -236 47 -126 22 -256 46 -289 54 -33 9 -247 48 -475 87 -374 64 -417 73
-435 94 -25 29 -57 45 -87 44 -25 -1 -128 6 -243 16 -65 5 -75 3 -140 -29z
m1330 -601 c77 -14 143 -25 148 -25 4 0 7 -100 7 -222 l0 -223 -62 65 c-35 36
-146 152 -248 258 -102 106 -186 196 -188 201 -1 4 44 -1 100 -11 57 -10 166
-30 243 -43z m-1196 -1667 c39 -42 92 -186 106 -288 3 -19 9 -69 15 -110 6
-41 11 -82 11 -90 2 -25 -30 -292 -40 -340 -13 -61 -48 -160 -64 -179 -7 -9
-18 -28 -25 -43 -6 -15 -29 -36 -53 -48 l-41 -21 -40 26 c-23 16 -46 41 -55
63 -8 20 -20 43 -26 51 -33 40 -78 290 -79 436 0 115 28 322 50 362 7 12 12
31 12 42 0 29 69 151 86 151 8 0 14 -4 14 -8 0 -4 18 -8 40 -9 34 -2 40 1 40
18 0 27 15 24 49 -13z m-3567 -2697 c15 -27 37 -85 49 -128 39 -148 185 -414
333 -608 38 -49 71 -98 76 -109 14 -38 18 -113 6 -113 -6 0 -219 -4 -473 -8
-453 -7 -463 -7 -463 12 0 10 4 23 9 28 5 6 11 73 13 150 3 97 10 155 22 187
9 27 64 137 121 245 91 173 109 216 144 343 23 80 46 156 52 170 11 24 13 23
48 -47 20 -40 48 -95 63 -122z"/>
</g>
</svg>
